<?xml version="1.0" encoding="UTF-8"?>
<svg id="Layer_1" xmlns="http://www.w3.org/2000/svg" version="1.1" viewBox="0 0 1497 590.4">
  <!-- Generator: Adobe Illustrator 30.2.1, SVG Export Plug-In . SVG Version: 2.1.1 Build 1)  -->
  <path d="M1351.6,536c-37.8,36.4-81.5,57.9-135.2,53.9-19.2-1.4-37.1-5.2-54-14.1-47.1-24.5-60.5-76.5-47.8-126.3,50.5,18.9,106.4,24.8,146.8-17.7-64.4-62-109-148.6-130.5-234.3-3.8-15-8.3-28.6-14.9-42.2-10.3-21.3-36.9-11.6-35.9-25.9.2-3.6,3.2-8.3,8.7-8.3h215.6c-9.2,57.4-4.6,126.1,13.5,181.3,5.4-24.9,8.6-48.2,11.1-72.8,3.2-36.2,4-71.7,2.5-108.5h165.5c-3.5,91.8-19.1,183.5-53.1,269.4-21.4,53.6-50.6,105.4-92.3,145.6h0Z"/>
  <path d="M30.4,238.3c26.2-25.3,70.1-28.2,103.7-20.6,13.6,3.1,24.7,9.2,35.1,18,5.9,5,11.4,10,15.2,17.6-20.2,13.8-31.6,37.1-28.7,61.6,1.1,9.5,5.6,18.5,12.6,24.6,7.7,6.7,17.7,8,27.5,7.1,12.7-1.2,23-9,26.4-21.6s3.8-17.6,3.3-27.2l-10.3-229.3c-.9-20.7-18-39.3-34.1-49-5.8-3.5-8.6-4.7-7.9-11s4.5-8.5,10.9-8.5h206l-12.7,303.7c-.8,19.7-5.1,38.1-11.6,56.1-20.6,56.4-70.6,83.8-127.7,92.2-46.8,6.9-106,5.3-150.9-11.5C24.2,416.8-11.4,354.2,3.3,287.2c4.1-18.9,13.3-35.5,27.1-48.8h0Z"/>
  <path d="M1109.8,446.5l-20.5.3-153.2-.2-75.2-116.8c-5.1,13.3-7.4,26.5-7,40.6,2.2,19.1,7.6,37.8,18.6,53.6l15.6,22.6h-139.9c-6.1-11.6-8.9-23.5-11-36.1-5.4-32.1-5.9-60.1,13.6-87.5,19.7-27.5,40.6-40.1,72-51.8l-58.6-90.6c-8.3-12.9-17.3-24.4-29.1-34.1-13.1-10.7-30.3-6.4-30.3-17s2.9-8.3,8.2-9.3h170.8l75.3,116.1c6-13.9,9.1-28.9,7.2-44.2-2.4-18.7-8.7-36.8-19.5-52l-14.2-19.9h139.3c6.3,12.1,9.1,24.2,11.2,37.1,4.3,25.8,5.7,52.2-7,76-19.1,32.7-43.1,49.8-78.8,62.4l64.2,98.4c7.4,11.4,18.8,19.4,29.1,27.7s29.1,4.8,28,16.5c-.4,4-3.2,7.8-8.7,8.1h0Z"/>
  <path d="M434.7,451.2c-35.8-11.3-58-45.4-56.2-82.3.9-18.3,3.9-35.5,13.6-51,14.5-23.3,37.3-39.4,63.6-47,21.6-6.3,42.4-10.9,64.5-14.6,17.2-2.9,51.1-9.9,64-21,8.1-6.9,9.9-19.5,2.7-27.6-12.2-13.6-48.5-6.6-64.7-.4-17.8,6.8-34.3,15.8-49.2,27.5s-12.4,11.4-19,17.6c-11.9.4-24.5-1.7-34.9-8.9-18.8-13.1-26.3-37.7-18.7-59.2,14-39.9,63.1-61.1,102-67.9,32.6-5.8,65.2-6.9,98-2.8,28.2,3.5,63.5,14.3,82,36.7,20.6,24.9,29.2,55.1,27.9,87.8l-6.5,156.6c3.1,15.8,12.1,28,25.6,36.5s4.1,4.7,4,7.1c0,6.9-8.2,8.8-14.8,8.8h-148.7c-3,0-6.6-2.2-7.8-4-4.5-6.8,7.3-13,12.3-15.9.5-3,.2-7.8-.4-11.8-27,24.5-60.5,38.4-97.1,40.1-14.4.7-27.8.2-42.2-4.3h0ZM554.8,346.1c7.3-2.5,12.8-5.7,16.3-7.9l-2-46.9c-20.3,3.3-50,15.1-50.2,39.6,0,3.7-1.1,12,4,16.8,7.4,6.9,22.5,1.7,31.9-1.6Z"/>
</svg>